<svg xmlns="http://www.w3.org/2000/svg" viewBox="0 0 841.9 595.3">
  <g fill="#61DAFB">
   <path d="M1341 1072c-72,-73 -108,-155 -80,-184 29,-29 111,7 184,80 73,73 109,155 80,184 -28,29 -111,-7 -184,-80zm132 -132c-88,-89 -196,-125 -240,-80 -44,44 -8,152 80,240 89,89 196,125 241,80 44,-44 8,-152 -81,-240z"/>
   <path d="M1445 1072c73,-73 109,-155 80,-184 -28,-29 -111,7 -184,80 -72,73 -108,155 -80,184 29,29 111,-7 184,-80zm-132 -132c89,-89 196,-125 241,-80 44,44 8,152 -81,240 -88,89 -196,125 -240,80 -44,-44 -8,-152 80,-240z"/>
   <path d="M1393 1093c-103,0 -186,-33 -186,-73 0,-41 83,-73 186,-73 103,0 187,32 187,73 0,40 -84,73 -187,73zm0 -186c-125,0 -226,50 -226,113 0,63 101,113 226,113 126,0 227,-50 227,-113 0,-63 -101,-113 -227,-113z"/>
   <path d="M1393 1093c103,0 187,-33 187,-73 0,-41 -84,-73 -187,-73 -103,0 -186,32 -186,73 0,40 83,73 186,73zm0 -186c126,0 227,50 227,113 0,63 -101,113 -227,113 -125,0 -226,-50 -226,-113 0,-63 101,-113 226,-113z"/>
  </g>
</svg>
